<svg xmlns="http://www.w3.org/2000/svg" xmlns:xlink="http://www.w3.org/1999/xlink" width="500" zoomAndPan="magnify" viewBox="0 0 375 374.999991" height="500" preserveAspectRatio="xMidYMid meet" version="1.0"><defs><g/><clipPath id="097313452f"><path d="M 114.128906 114.890625 L 270 114.890625 L 270 260.109375 L 114.128906 260.109375 Z M 114.128906 114.890625 " clip-rule="nonzero"/></clipPath><clipPath id="8e8f117211"><path d="M 131.378906 114.890625 L 252.75 114.890625 C 257.324219 114.890625 261.714844 116.707031 264.949219 119.945312 C 268.183594 123.179688 270 127.566406 270 132.140625 L 270 242.859375 C 270 247.433594 268.183594 251.820312 264.949219 255.054688 C 261.714844 258.292969 257.324219 260.109375 252.75 260.109375 L 131.378906 260.109375 C 126.804688 260.109375 122.417969 258.292969 119.183594 255.054688 C 115.949219 251.820312 114.128906 247.433594 114.128906 242.859375 L 114.128906 132.140625 C 114.128906 127.566406 115.949219 123.179688 119.183594 119.945312 C 122.417969 116.707031 126.804688 114.890625 131.378906 114.890625 Z M 131.378906 114.890625 " clip-rule="nonzero"/></clipPath></defs><rect x="-37.5" width="450" fill="#ffffff" y="-37.499999" height="449.999989" fill-opacity="1"/><rect x="-37.5" width="450" fill="#ffffff" y="-37.499999" height="449.999989" fill-opacity="1"/><g clip-path="url(#097313452f)"><g clip-path="url(#8e8f117211)"><path fill="#000000" d="M 114.128906 114.890625 L 270.125 114.890625 L 270.125 260.109375 L 114.128906 260.109375 Z M 114.128906 114.890625 " fill-opacity="1" fill-rule="nonzero"/></g></g><g fill="#ffffff" fill-opacity="1"><g transform="translate(144.135595, 202.124987)"><g><path d="M 20.875 -8.625 L 20.875 -1.921875 C 18.570312 -0.347656 15.71875 0.4375 12.3125 0.4375 C 8.914062 0.4375 6.257812 -0.625 4.34375 -2.75 C 2.4375 -4.882812 1.484375 -8.050781 1.484375 -12.25 C 1.484375 -14.09375 1.722656 -15.753906 2.203125 -17.234375 C 2.679688 -18.722656 3.304688 -19.945312 4.078125 -20.90625 C 4.859375 -21.863281 5.769531 -22.664062 6.8125 -23.3125 C 8.78125 -24.46875 11.015625 -25.046875 13.515625 -25.046875 C 16.023438 -25.046875 18.363281 -24.539062 20.53125 -23.53125 L 20.53125 -17.234375 L 16.765625 -16.984375 L 16.765625 -19.875 C 16.765625 -20.238281 16.710938 -20.507812 16.609375 -20.6875 C 16.335938 -21.15625 15.21875 -21.390625 13.25 -21.390625 C 8.488281 -21.390625 6.109375 -18.441406 6.109375 -12.546875 C 6.109375 -6.328125 8.253906 -3.21875 12.546875 -3.21875 C 14.242188 -3.21875 15.550781 -3.515625 16.46875 -4.109375 L 16.46875 -9.625 L 16.421875 -9.625 L 13.578125 -9.734375 L 13.578125 -12.875 L 22.796875 -12.875 L 22.796875 -9.921875 L 21.9375 -9.84375 C 21.539062 -9.789062 21.265625 -9.679688 21.109375 -9.515625 C 20.953125 -9.359375 20.875 -9.0625 20.875 -8.625 Z M 20.875 -8.625 "/></g></g></g><g fill="#ffffff" fill-opacity="1"><g transform="translate(167.850074, 202.124987)"><g><path d="M 12.78125 -25.046875 C 15.707031 -25.046875 18.15625 -24.007812 20.125 -21.9375 C 22.101562 -19.863281 23.09375 -16.695312 23.09375 -12.4375 C 23.09375 -8.1875 22.109375 -4.96875 20.140625 -2.78125 C 18.179688 -0.601562 15.53125 0.484375 12.1875 0.484375 C 8.84375 0.484375 6.222656 -0.597656 4.328125 -2.765625 C 2.429688 -4.941406 1.484375 -8.101562 1.484375 -12.25 C 1.484375 -14.519531 1.816406 -16.507812 2.484375 -18.21875 C 3.148438 -19.9375 4.023438 -21.265625 5.109375 -22.203125 C 7.304688 -24.097656 9.863281 -25.046875 12.78125 -25.046875 Z M 6.109375 -12.4375 C 6.109375 -6.3125 8.226562 -3.25 12.46875 -3.25 C 14.738281 -3.25 16.328125 -4.1875 17.234375 -6.0625 C 18.078125 -7.71875 18.5 -9.742188 18.5 -12.140625 C 18.5 -14.285156 18.128906 -16.257812 17.390625 -18.0625 C 16.972656 -19.039062 16.335938 -19.8125 15.484375 -20.375 C 14.628906 -20.945312 13.523438 -21.234375 12.171875 -21.234375 C 10.816406 -21.234375 9.648438 -20.789062 8.671875 -19.90625 C 7.703125 -19.019531 7.03125 -17.945312 6.65625 -16.6875 C 6.289062 -15.425781 6.109375 -14.007812 6.109375 -12.4375 Z M 6.109375 -12.4375 "/></g></g></g><g fill="#ffffff" fill-opacity="1"><g transform="translate(192.415457, 202.124987)"><g><path d="M 3.484375 -4.328125 L 3.484375 -21.34375 L 1.375 -21.453125 L 1.375 -24.609375 L 10.25 -24.609375 L 10.25 -21.609375 L 9.03125 -21.5 C 8.3125 -21.425781 7.953125 -21.03125 7.953125 -20.3125 L 7.953125 -12.171875 L 15.5 -21.34375 L 13.4375 -21.453125 L 13.4375 -24.609375 L 22.09375 -24.609375 L 22.09375 -21.609375 L 20.875 -21.5 C 20.40625 -21.445312 19.910156 -21.101562 19.390625 -20.46875 L 14.140625 -14.015625 L 20.6875 -3.25 L 22.640625 -3.140625 L 22.640625 0 L 13.171875 0 L 13.171875 -3 L 14.3125 -3.109375 C 14.8125 -3.160156 15.0625 -3.359375 15.0625 -3.703125 C 15.0625 -3.847656 15 -4.046875 14.875 -4.296875 L 11.21875 -10.625 L 7.953125 -6.703125 L 7.953125 -3.25 L 10.0625 -3.140625 L 10.0625 0 L 1.1875 0 L 1.1875 -3 L 2.40625 -3.109375 C 2.769531 -3.160156 3.039062 -3.265625 3.21875 -3.421875 C 3.394531 -3.578125 3.484375 -3.878906 3.484375 -4.328125 Z M 3.484375 -4.328125 "/></g></g></g><g fill="#ffffff" fill-opacity="1"><g transform="translate(215.427006, 202.124987)"><g><path d="M 12.78125 -25.046875 C 15.707031 -25.046875 18.15625 -24.007812 20.125 -21.9375 C 22.101562 -19.863281 23.09375 -16.695312 23.09375 -12.4375 C 23.09375 -8.1875 22.109375 -4.96875 20.140625 -2.78125 C 18.179688 -0.601562 15.53125 0.484375 12.1875 0.484375 C 8.84375 0.484375 6.222656 -0.597656 4.328125 -2.765625 C 2.429688 -4.941406 1.484375 -8.101562 1.484375 -12.25 C 1.484375 -14.519531 1.816406 -16.507812 2.484375 -18.21875 C 3.148438 -19.9375 4.023438 -21.265625 5.109375 -22.203125 C 7.304688 -24.097656 9.863281 -25.046875 12.78125 -25.046875 Z M 6.109375 -12.4375 C 6.109375 -6.3125 8.226562 -3.25 12.46875 -3.25 C 14.738281 -3.25 16.328125 -4.1875 17.234375 -6.0625 C 18.078125 -7.71875 18.5 -9.742188 18.5 -12.140625 C 18.5 -14.285156 18.128906 -16.257812 17.390625 -18.0625 C 16.972656 -19.039062 16.335938 -19.8125 15.484375 -20.375 C 14.628906 -20.945312 13.523438 -21.234375 12.171875 -21.234375 C 10.816406 -21.234375 9.648438 -20.789062 8.671875 -19.90625 C 7.703125 -19.019531 7.03125 -17.945312 6.65625 -16.6875 C 6.289062 -15.425781 6.109375 -14.007812 6.109375 -12.4375 Z M 6.109375 -12.4375 "/></g></g></g></svg>